<svg xmlns="http://www.w3.org/2000/svg" height="536.818" viewBox="0 0 136.691 142.033" width="516.631" xmlns:v="https://vecta.io/nano"><filter color-interpolation-filters="sRGB" height="1" width="1" x="0" y="0"><feGaussianBlur stdDeviation="0"/></filter><filter color-interpolation-filters="sRGB" height="1.221" width="2.671" x="-.793" y="-.121"><feGaussianBlur stdDeviation=".003"/></filter><g transform="matrix(.386977 0 0 .386977 -21.748508 -39.348898)"><path d="M174.313 148.466c-9.885-.213-29.364 12.789-24.465 37.359-5.281 13.847-9.801 28.24-13.144 42.719l.017-.075c2.902-20.878.751-39.419-7.661-47.475-14.249 25.597-4.027 44.094 6.43 53.058l.034-.153c-2.077 9.882-3.582 19.778-4.384 29.541-3.233-10.573-9.792-19.693-22.301-24.426-4.471 24.053 3.976 39.862 21.666 43.265l.003-.008c.208 11.7 1.606 23.058 4.44 33.804l-.008-.021c-7.335-15.497-18.571-18.217-31.598-16.64 8.134 18.129 8.466 44.17 38.518 35.731l-.002-.005c13.791 29.077 41.286 51.435 88.704 60.223l-2.138-11.76c-29.848-3.566-50.956-16.013-65.245-33.357 8.575-7.775 12.688-21.944 2.971-47.091-8.952 5.668-18.796 11.964-14.128 30.102-5.337-10.3-9.012-21.583-11.284-33.305 24.672-7.89 20.953-27.855 18.937-41.095-10.973 1.335-17.889 9.543-21.334 23.174-.855-11.019-.646-22.172.426-33.04 26.542-5.334 33.892-24.378 30.169-41.728-11.942 4.679-23.453 16.621-28.425 28.499 2.849-17.234 7.769-33.245 13.879-46.196 9.415-8.396 25.421-19.159 23.471-40.196-.921-.575-2.138-.874-3.55-.905zm117.004 0c9.885-.213 29.364 12.789 24.465 37.359 5.281 13.847 9.801 28.24 13.144 42.719l-.017-.075c-2.902-20.878-.751-39.419 7.661-47.475 14.249 25.597 4.027 44.094-6.43 53.058l-.034-.153c2.077 9.882 3.582 19.778 4.384 29.541 3.233-10.573 9.792-19.693 22.301-24.426 4.471 24.053-3.976 39.862-21.666 43.265l-.003-.008c-.208 11.7-1.606 23.058-4.44 33.804l.008-.021c7.335-15.497 18.571-18.217 31.598-16.64-8.134 18.129-8.466 44.17-38.518 35.731l.002-.005c-13.791 29.077-41.286 51.435-88.704 60.223l2.138-11.76c29.848-3.566 50.956-16.013 65.245-33.357-8.575-7.775-12.688-21.944-2.971-47.091 8.952 5.668 18.796 11.964 14.128 30.102 5.337-10.3 9.012-21.583 11.284-33.305-24.672-7.89-20.953-27.855-18.937-41.095 10.973 1.335 17.889 9.543 21.334 23.174.855-11.019.646-22.172-.426-33.04-26.542-5.334-33.892-24.378-30.169-41.728 11.942 4.679 23.453 16.621 28.425 28.499-2.849-17.234-7.769-33.245-13.879-46.196-9.415-8.396-25.421-19.159-23.471-40.196.921-.575 2.138-.874 3.55-.905z" stroke-width="1.3" fill="#daa520" stroke="#b8860b"/><path d="M56.748 377.164c9.682 23.295 29.671 39.437 47.625 53.295l39.688-34.018c-18.521-19.151-33.21-26.806-55.562-57.452-2.468 8.219-6.321 12.284-4.536 33.262-6.872 5.002-14.921 6.707-27.214 4.914z" fill="#daa520" stroke="#b8860b" stroke-width=".684"/><path d="M105.258 409.794l-.885 20.665 11.463-9.825z" fill="#b8860b"/><path d="M408.883 377.164c-9.682 23.295-29.671 39.437-47.625 53.295L321.57 396.44c18.521-19.151 33.21-26.806 55.563-57.452 2.468 8.219 6.321 12.284 4.536 33.262 6.872 5.002 14.921 6.707 27.214 4.914z" fill="#daa520" stroke="#b8860b" stroke-width=".684"/><path d="M360.372 409.794l.886 20.665-11.463-9.825z" fill="#b8860b"/><path d="M136.863 375.144l-31.151 34.655a167.19 167.19 0 0 0 254.205 0l-31.151-34.655a121.15 121.15 0 0 1-191.904 0z" fill="#daa520"/><path d="M136.883 374.61l-.275.305-31.35 34.879.193.229c31.829 37.247 78.369 58.693 127.363 58.693s95.534-21.447 127.363-58.693l.193-.229-31.625-35.184-.25.326a120.81 120.81 0 0 1-191.363 0zm-.023 1.049c23.008 29.643 58.415 47.015 95.955 47.016s72.949-17.372 95.957-47.016l30.682 34.133a166.84 166.84 0 0 1-126.639 58.24c-48.695 0-94.942-21.285-126.637-58.24z" fill="#b8860b"/><g fill="#8b0000"><path d="M127.991 392.85l9.863-8.473 1.711 1.992-4.38 3.762 7.836.261 2.3 2.678-7.032-.414-2.658 9.088-2.213-2.577 2.3-6.688-3.035-.199-2.981 2.56zm17.096 17.951l-2.063-1.975 1.222-2.919-3.755-3.594-2.818 1.391-2.012-1.926 12.65-5.891 2.005 1.92zm.065-7.059l2.042-4.724-4.605 2.271zm3.149 4.187l2.157 1.391q-.618 1.151-.443 2.059.182.913 1.121 1.657.994.787 1.825.767.843-.022 1.289-.585.286-.362.269-.783-.005-.422-.385-1.029-.262-.411-1.296-1.75-1.33-1.721-1.524-2.847-.273-1.585.686-2.795.617-.779 1.589-1.106.985-.329 2.093-.028 1.115.306 2.29 1.237 1.919 1.52 2.219 3.126.307 1.612-.756 3.055l-2.13-1.539q.49-.89.322-1.578-.156-.689-1.025-1.377-.897-.71-1.696-.744-.514-.022-.828.374-.286.362-.184.861.131.635 1.352 2.179 1.221 1.544 1.635 2.493.426.948.306 1.928-.107.978-.873 1.945-.694.876-1.786 1.256-1.092.379-2.28.05-1.182-.336-2.51-1.388-1.933-1.531-2.264-3.241-.326-1.717.827-3.588zm14.523.259l2.202 1.429-3.834 5.907q-.913 1.406-1.101 1.876-.293.761-.03 1.513.275.749 1.198 1.348.937.608 1.66.538.727-.078 1.186-.573.459-.495 1.299-1.79l3.916-6.034 2.202 1.429-3.718 5.729q-1.275 1.964-1.98 2.659-.705.695-1.551.939-.838.249-1.859.062-1.016-.194-2.311-1.034-1.562-1.014-2.142-1.897-.567-.886-.664-1.763-.092-.885.169-1.613.393-1.077 1.58-2.908zm4.103 17.935l6.07-11.378 2.316 1.236-5.039 9.445 5.76 3.073-1.031 1.933zm11.26 5.656l4.374-9.878-3.528-1.562.891-2.011 9.448 4.184-.891 2.011-3.52-1.559-4.374 9.878zm17.348 6.534l-2.701-.928-.114-3.162-4.916-1.688-1.974 2.445-2.634-.905 9.013-10.653 2.626.902zm-2.901-6.435l-.127-5.145-3.228 3.993zm4.29 6.771l2.989-12.654 2.486.587 3.183 9.674 1.996-8.451 2.374.561-2.989 12.654-2.564-.606-3.152-9.457-1.949 8.252zm24.396 4.443l-2.831-.38-.732-3.078-5.151-.692-1.457 2.784-2.76-.371 6.75-12.213 2.751.369zm-4.106-5.742l-1.134-5.021-2.383 4.548zm5.535 5.798l.468-12.994 2.553.092 5.006 8.869.313-8.678 2.438.088-.468 12.994-2.633-.095-4.933-8.662-.305 8.474zm18.173.137l-1.274-12.94 2.613-.257.566 5.746 4.713-6.266 3.513-.346-4.376 5.52 5.915 7.394-3.381.333-4.155-5.723-1.906 2.371.385 3.91zm24.512-3.697l-2.801.557-1.69-2.675-5.098 1.014-.476 3.106-2.732.543 2.431-13.741 2.723-.542zm-5.744-4.103l-2.698-4.383-.781 5.075zm5.23-.177l2.375-.972q.59 1.166 1.435 1.542.853.374 2 .03 1.215-.364 1.674-1.057.465-.704.258-1.392-.132-.442-.488-.669-.349-.238-1.064-.274-.488-.021-2.177.06-2.172.105-3.207-.381-1.455-.684-1.898-2.162-.285-.952.003-1.936.294-.996 1.175-1.732.89-.739 2.325-1.17 2.345-.703 3.834-.029 1.498.671 2.072 2.37l-2.482.864q-.449-.912-1.109-1.167-.654-.267-1.716.052-1.096.329-1.581.965-.313.409-.167.893.132.442.601.644.595.257 2.56.14 1.965-.117 2.98.088 1.021.194 1.756.853.741.648 1.095 1.829.321 1.07.006 2.183-.314 1.113-1.264 1.898-.952.776-2.575 1.263-2.362.708-3.954 0-1.594-.716-2.468-2.732zm13.426.265l-4.854-12.062 8.944-3.599.821 2.041-6.508 2.619 1.076 2.674 6.056-2.437.818 2.032-6.056 2.437 1.321 3.283 6.739-2.712.818 2.032zm11.197-4.637l-5.931-11.571 3.749-1.922q2.131-1.092 2.867-1.251 1.128-.249 2.248.283 1.116.524 1.824 1.906.546 1.066.532 1.99-.014.924-.4 1.65-.382.714-.928 1.164-.752.595-2.338 1.408l-1.523.781 2.237 4.365zm-2.592-10.811l1.683 3.283 1.279-.655q1.381-.708 1.754-1.128.373-.42.435-.941.07-.524-.193-1.037-.324-.631-.905-.852-.581-.22-1.202-.031-.459.136-1.722.783zm6.32-5.759l2.213-1.413 3.789 5.936q.902 1.413 1.251 1.779.572.582 1.365.654.796.06 1.723-.532.942-.601 1.177-1.288.23-.694-.031-1.317-.261-.623-1.091-1.924l-3.87-6.063 2.213-1.413 3.675 5.757q1.26 1.974 1.601 2.903.341.929.213 1.8-.121.866-.713 1.718-.597.844-1.898 1.675-1.57 1.002-2.614 1.164-1.041.149-1.88-.126-.843-.282-1.398-.822-.818-.804-1.992-2.643zm18.009 3.774l-8.034-10.224 2.064-1.622 3.162 4.024 4.045-3.178-3.162-4.024 2.064-1.622 8.034 10.224-2.064 1.622-3.513-4.47-4.045 3.178 3.513 4.47zm18.701-16.312l-2.063 1.975-2.862-1.348-3.755 3.594 1.267 2.876-2.012 1.926-5.333-12.895 2.005-1.92zm-7.049-.373l-4.631-2.246 2.068 4.7zm7.986-.706l-9.863-8.473 1.664-1.938 10.054 1.621-6.587-5.658 1.589-1.85 9.863 8.472-1.716 1.998-9.848-1.549 6.432 5.525zM201.913 455.85l2.297 1.362q-1.052 1.941-2.617 2.642-1.555.695-3.594.221-2.523-.586-3.747-2.683-1.223-2.105-.528-5.094.735-3.162 2.773-4.528 2.04-1.374 4.701-.756 2.324.54 3.456 2.251.675 1.013.754 2.634l-2.672.016q.004-1.037-.58-1.774-.576-.735-1.595-.972-1.408-.327-2.524.479-1.107.808-1.634 3.071-.558 2.402.069 3.622.627 1.22 2.009 1.541 1.019.237 1.904-.24.885-.477 1.528-1.794zm3.554 5.535l2.188-12.817 2.588.442-2.188 12.817zm5.06.904l1.429-12.924 5.492.607q2.072.229 2.967.685.905.448 1.371 1.401.466.953.339 2.099-.161 1.455-1.121 2.312-.959.849-2.688.907.792.587 1.273 1.238.49.652 1.258 2.263l1.299 2.696-3.121-.345-1.576-3.021q-.838-1.619-1.166-2.047-.326-.438-.725-.625-.398-.196-1.297-.295l-.529-.058-.597 5.395zm3.434-7.169l1.931.214q1.878.208 2.363.101.485-.107.792-.466.307-.359.372-.94.072-.652-.237-1.088-.299-.444-.922-.62-.312-.079-1.899-.255l-2.036-.225zm9.611 8.482l.377-12.997 9.637.279-.064 2.199-7.013-.203-.084 2.881 6.525.189-.064 2.19-6.525-.189-.103 3.537 7.261.21-.064 2.19zm11.455-12.72l5.191-.268q1.541-.08 2.301.014.768.085 1.383.461.623.376 1.057 1.038.433.653.477 1.494.047.912-.41 1.7-.448.787-1.27 1.211 1.205.284 1.886 1.084.681.8.739 1.925.046.886-.327 1.749-.364.854-1.056 1.396-.683.533-1.722.702-.652.105-3.158.252l-4.42.228zm2.734 2.026l.155 3.003 1.718-.089q1.532-.079 1.902-.143.669-.114 1.03-.515.37-.41.337-1.039-.031-.602-.387-.957-.347-.364-1.007-.41-.392-.024-2.243.071zm.267 5.164l.179 3.472 2.427-.125q1.417-.073 1.794-.173.579-.136.921-.563.351-.436.315-1.126-.03-.585-.335-.977-.304-.393-.854-.551-.541-.159-2.33-.066zm9.341-1.259q-.276-1.967.124-3.385.301-1.045.946-1.933.654-.889 1.506-1.394 1.132-.678 2.704-.899 2.846-.4 4.798 1.126 1.961 1.525 2.403 4.669.438 3.118-1.009 5.122-1.448 1.995-4.285 2.393-2.872.404-4.813-1.106-1.942-1.518-2.374-4.593zm2.667-.464q.307 2.187 1.477 3.178 1.168.982 2.723.764 1.555-.218 2.39-1.473.843-1.265.529-3.505-.311-2.213-1.439-3.166-1.119-.953-2.726-.728-1.607.226-2.436 1.471-.829 1.236-.517 3.458zm12.754 4.639l-2.943-12.665 2.488-.578 7.149 7.253-1.966-8.458 2.376-.552 2.943 12.665-2.566.596-7.025-7.072 1.919 8.259z"/><path d="M232.812 108.051c7.172 0 12.483 2.723 16.762 7.832 4.273 5.102 7.339 12.74 8.934 22.157l.258 1.517 1.347.718c7.18 3.84 11.87 11.539 13.895 21.381 1.756 8.538 1.353 18.561-1.055 28.389l-80.283.004c-2.408-9.829-2.809-19.854-1.054-28.393 2.024-9.842 6.71-17.541 13.891-21.381l1.351-.718.258-1.517c1.595-9.416 4.674-17.055 8.948-22.157 4.281-5.11 9.577-7.832 16.748-7.832z" opacity=".996" fill-rule="evenodd" /></g><path d="M232.815 159.837c-9.131 0-16.332 5.759-22.745 12.428s-12.313 14.48-18.638 19.726l-1.981 1.647 1.58 2.033c9.102 11.7 8.302 22.724 4.4 33.307s-11.142 20.189-14.877 28.025l-.26.542v64.879l1.755.635c18.485 6.693 32.173 16.966 48.833 34.602l1.933 2.048 1.933-2.048c16.66-17.636 30.348-27.909 48.833-34.602l1.755-.635v-64.879l-.26-.542c-3.734-7.836-10.975-17.442-14.877-28.025s-4.702-21.607 4.4-33.307l1.58-2.033-1.981-1.647c-6.325-5.246-12.225-13.056-18.638-19.726s-13.614-12.428-22.745-12.428z" fill="#006400"/><path d="M232.811 102.361c8.707 0 15.945 3.674 21.132 9.869 5.038 6.016 8.204 14.35 9.953 24.062 8.26 5.028 13.544 13.785 15.689 24.215 2.258 10.98 1.399 23.649-2.366 35.715l-2.453-.765-.167.216c-9.102 11.7-8.302 22.724-4.4 33.307s11.143 20.188 14.878 28.024l.259.541v64.88l-1.755.634c-18.485 6.693-32.172 16.965-48.832 34.601l-1.934 2.048-1.932-2.048c-16.66-17.636-30.349-27.908-48.834-34.601l-1.755-.634v-64.88l.259-.541c3.734-7.836 10.976-17.441 14.878-28.024s4.702-21.607-4.4-33.307l-.167-.216-2.445.765c-3.765-12.066-4.628-24.735-2.37-35.715 2.144-10.43 7.429-19.186 15.689-24.215 1.748-9.712 4.917-18.047 9.957-24.062 5.189-6.194 12.41-9.869 21.116-9.869zm0 5.131c-7.316 0-12.811 2.821-17.176 8.032s-7.465 12.939-9.071 22.422l-.211 1.246-1.11.59c-7.366 3.939-12.129 11.808-14.175 21.761-1.836 8.932-1.389 19.427 1.265 29.65 5.986-5.22 11.63-12.578 17.737-18.928 6.414-6.669 13.614-12.428 22.746-12.428s16.332 5.759 22.746 12.428c6.105 6.348 11.747 13.705 17.73 18.925 2.653-10.222 3.102-20.716 1.265-29.647-2.047-9.954-6.813-17.823-14.179-21.761l-1.106-.59-.211-1.246c-1.606-9.483-4.692-17.212-9.057-22.422s-9.876-8.032-17.192-8.032zm.004 57.666c-6.864 0-12.822 4.467-18.909 10.797-5.595 5.817-11.155 12.872-17.474 18.534 5.743 8.332 7.384 16.807 6.656 24.782l8.462-7.905 10.684 9.983 10.67-9.983 10.67 9.983 10.674-9.983 8.279 7.732c-.689-7.924.97-16.337 6.672-24.608-6.318-5.662-11.879-12.716-17.474-18.534-6.087-6.33-12.046-10.797-18.91-10.797zm-21.265 53.119l-8.944 8.358-1.172 1.098c-.309 1.04-.64 2.074-1.012 3.083-2.05 5.559-4.831 10.73-7.532 15.377l.096-.085 9.939 9.297 9.998-9.322 9.983 9.322 9.983-9.322 9.998 9.322 9.983-9.322 9.983 9.322 9.883-9.218c-2.699-4.645-5.479-9.814-7.528-15.37-.401-1.089-.755-2.204-1.083-3.328l-.92-.853-8.959-8.358-10.674 9.969-10.67-9.969-10.67 9.969zm-18.65 34.227l-7.286 6.433v13.445l5.506-6.165 8.343 9.326 8.343-9.326 8.329 9.338 8.343-9.338 8.339 9.338 8.329-9.338 8.343 9.326 8.329-9.326 8.343 9.326 8.343-9.326 5.51 6.173v-13.463l-7.135-6.422-10.027 9.368-9.983-9.342-9.983 9.342-9.998-9.342-9.983 9.342-9.983-9.342-9.998 9.342zm-1.765 20.178l-5.52 6.184v6.011h94.402v-6.007l-5.524-6.188-8.329 9.338-8.329-9.338-8.343 9.338-8.343-9.326-8.329 9.326-8.339-9.326-8.343 9.326-8.329-9.338-8.343 9.338zm-5.52 20.163v25.985c17.696 6.747 31.61 17.099 47.201 33.274 15.591-16.175 29.506-26.527 47.202-33.274v-25.985z" opacity=".996" fill="#daa520" fill-rule="evenodd" stroke="#b8860b"  stroke-width="1.356"/><g fill="#8b0000"><path d="M202.114 301.352c-1.887 0-7.327 5.44-7.327 7.327s5.44 7.331 7.327 7.331c1.517 0 5.291-3.494 6.73-5.854h17.251c1.438 2.36 5.205 5.854 6.722 5.854s5.284-3.494 6.722-5.854h17.251c1.438 2.36 5.209 5.854 6.726 5.854 1.888 0 7.327-5.443 7.327-7.331s-5.44-7.327-7.327-7.327c-1.516 0-5.277 3.487-6.719 5.847h-17.262c-1.442-2.36-5.203-5.847-6.719-5.847s-5.277 3.487-6.719 5.847h-17.262c-1.441-2.36-5.207-5.847-6.722-5.847z" opacity=".997"/><path d="M232.813 170.678l-2.656 4.776c-3.502 8.597 2.487 11.573.594 25.754l-2.341.252c-3.668.398-8.443-4.085-7.501-8.566.341-1.624-.037-3.98 2.122-5.402l-1.528-5.172-2.909 4.919c.681 1.345.638 3.412.423 5.654-.535 5.577 4.409 10.473 9.393 10.473h4.404 4.404c4.985 0 9.929-4.896 9.393-10.473-.215-2.241-.255-4.309.427-5.654l-2.912-4.919-1.525 5.172c2.159 1.422 1.777 3.778 2.118 5.402.941 4.481-3.833 8.965-7.501 8.566l-2.341-.252c-1.893-14.181 4.096-17.157.594-25.754z"/></g></g></svg>